<svg xmlns="http://www.w3.org/2000/svg" version="1.1" xmlns:xlink="http://www.w3.org/1999/xlink" xmlns:svgjs="http://svgjs.dev/svgjs" width="1000" height="1125" viewBox="0 0 1000 1125"><g transform="matrix(1,0,0,1,0,0)"><svg viewBox="0 0 320 360" data-background-color="#ffffff" preserveAspectRatio="xMidYMid meet" height="1125" width="1000" xmlns="http://www.w3.org/2000/svg" xmlns:xlink="http://www.w3.org/1999/xlink"><g id="tight-bounds" transform="matrix(1,0,0,1,0,0)"><svg viewBox="0 0 320 360" height="360" width="320"><g><svg></svg></g><g><svg viewBox="0 0 320 360" height="360" width="320"><g><path xmlns="http://www.w3.org/2000/svg" d="M297.491 100.645c-12.426-21.51-112.674-79.355-137.491-79.355-24.817 0-125.028 57.845-137.491 79.355-11.591 20.02-11.591 138.726 0 158.746 12.463 21.474 112.674 79.319 137.491 79.319 24.817 0 125.064-57.845 137.491-79.355 11.591-20.02 11.591-138.69 0-158.71zM309.481 93.705c-14.461-24.998-119.469-86.295-149.481-86.295-30.012 0-135.02 61.297-149.481 86.295-14.025 24.199-14.025 148.391 0 172.59 14.461 24.998 119.469 86.295 149.481 86.295 30.012 0 135.02-61.297 149.481-86.259 14.025-24.235 14.025-148.427 0-172.626zM300.906 261.353c-12.753 22.055-115.472 81.317-140.906 81.318-25.434 0-128.153-59.298-140.906-81.354-11.881-20.529-11.881-142.178 0-162.707 12.753-22.019 115.472-81.281 140.906-81.281 25.434 0 128.153 59.298 140.906 81.318 11.881 20.529 11.881 142.178 0 162.706z" fill="#202046" fill-rule="nonzero" stroke="none" stroke-width="1" stroke-linecap="butt" stroke-linejoin="miter" stroke-miterlimit="10" stroke-dasharray="" stroke-dashoffset="0" font-family="none" font-weight="none" font-size="none" text-anchor="none" style="mix-blend-mode: normal" data-fill-palette-color="tertiary"></path></g><g transform="matrix(1,0,0,1,77.22991689750693,90)"><svg viewBox="0 0 165.54016620498615 180" height="180" width="165.54016620498615"><g><svg viewBox="0 0 165.54016620498615 180" height="180" width="165.54016620498615"><g><svg viewBox="0 0 165.54016620498615 180" height="180" width="165.54016620498615"><g><svg viewBox="0 0 165.54016620498615 180" height="180" width="165.54016620498615"><g id="textblocktransform"><svg viewBox="0 0 165.54016620498615 180" height="180" width="165.54016620498615" id="textblock"><g><svg viewBox="0 0 165.54016620498615 180" height="180" width="165.54016620498615"><g transform="matrix(1,0,0,1,0,0)"><svg width="165.54016620498615" viewBox="-1.5 -35.5 33.20000076293945 36.099998474121094" height="180" data-palette-color="#ffffff"><path d="M4.75-0.65L4.75-0.65Q4.4 0.45 2.43 0.45 0.45 0.45-1.5-0.9L-1.5-0.9Q0.05-5.1 4.67-14.88 9.3-24.65 10.85-29.45L10.85-29.45Q11-30.05 11-30.48 11-30.9 10.65-31.65 10.3-32.4 9.9-32.85L9.9-32.85 9.55-33.3 9.75-34.3Q14.2-35.5 20.3-35.5L20.3-35.5 24.15-35.3Q24.65-34.85 25.15-32.95 25.65-31.05 25.8-27.25 25.95-23.45 26-13L26-13Q26.05-4.95 28-4.95L28-4.95Q28.5-4.95 30.15-5.45L30.15-5.45 30.65-5.6 31.7-2.75Q29.65-1.2 26.9-0.3 24.15 0.6 21.95 0.6L21.95 0.6Q18.75 0.6 17.57-1.38 16.4-3.35 16.4-6.48 16.4-9.6 16.45-10.8L16.45-10.8Q15.5-11 12.75-11 10-11 8-10.45L8-10.45Q6.15-5.5 4.75-0.65ZM9.8-15L16.65-15Q16.9-19.35 16.9-23.75 16.9-28.15 16.4-30.15L16.4-30.15Q15.9-30.15 15.7-30.05L15.7-30.05Q14.6-26.7 9.8-15L9.8-15Z" opacity="1" transform="matrix(1,0,0,1,0,0)" fill="#ffffff" class="wordmark-text-0" data-fill-palette-color="quaternary" id="text-0"></path></svg></g></svg></g></svg></g></svg></g><g></g></svg></g></svg></g></svg></g></svg></g><defs></defs></svg><rect width="320" height="360" fill="none" stroke="none" visibility="hidden"></rect></g></svg></g></svg>